<svg viewBox="0 0 380 140" xmlns="http://www.w3.org/2000/svg" aria-label="A Drifter's Tale logbook">
  <defs>
    <linearGradient id="lg-cover" x1="0" y1="0" x2="1" y2="1">
      <stop offset="0%"  stop-color="#2a1f14"/>
      <stop offset="40%" stop-color="#1e1510"/>
      <stop offset="100%" stop-color="#120d08"/>
    </linearGradient>
    <linearGradient id="lg-spine" x1="0" y1="0" x2="1" y2="0">
      <stop offset="0%"  stop-color="#3a2a1a"/>
      <stop offset="100%" stop-color="#1a1008"/>
    </linearGradient>
    <linearGradient id="lg-pages" x1="0" y1="0" x2="1" y2="0">
      <stop offset="0%"  stop-color="#d8c9a8"/>
      <stop offset="100%" stop-color="#b8a888"/>
    </linearGradient>
    <filter id="lg-glow" x="-20%" y="-40%" width="140%" height="180%">
      <feGaussianBlur stdDeviation="2.2" result="blur"/>
      <feMerge><feMergeNode in="blur"/><feMergeNode in="SourceGraphic"/></feMerge>
    </filter>
    <filter id="lg-emboss" x="-5%" y="-5%" width="110%" height="110%">
      <feTurbulence type="fractalNoise" baseFrequency="0.65" numOctaves="3" seed="4" result="noise"/>
      <feDisplacementMap in="SourceGraphic" in2="noise" scale="1.8" xChannelSelector="R" yChannelSelector="G"/>
    </filter>
  </defs>

  <!-- Page stack -->
  <rect x="355" y="12" width="8" height="116" rx="1" fill="url(#lg-pages)" opacity="0.9"/>
  <rect x="352" y="14" width="5" height="112" rx="1" fill="#c8b898" opacity="0.6"/>
  <line x1="352" y1="28"  x2="363" y2="28"  stroke="#a89878" stroke-width="0.4" opacity="0.5"/>
  <line x1="352" y1="42"  x2="363" y2="42"  stroke="#a89878" stroke-width="0.4" opacity="0.5"/>
  <line x1="352" y1="56"  x2="363" y2="56"  stroke="#a89878" stroke-width="0.4" opacity="0.5"/>
  <line x1="352" y1="70"  x2="363" y2="70"  stroke="#a89878" stroke-width="0.4" opacity="0.5"/>
  <line x1="352" y1="84"  x2="363" y2="84"  stroke="#a89878" stroke-width="0.4" opacity="0.5"/>
  <line x1="352" y1="98"  x2="363" y2="98"  stroke="#a89878" stroke-width="0.4" opacity="0.5"/>
  <line x1="352" y1="112" x2="363" y2="112" stroke="#a89878" stroke-width="0.4" opacity="0.5"/>

  <!-- Spine -->
  <rect x="28" y="6" width="18" height="128" rx="2" fill="url(#lg-spine)"/>
  <line x1="36" y1="18"  x2="36" y2="26"  stroke="#4a3520" stroke-width="1.2" stroke-dasharray="2,3" opacity="0.7"/>
  <line x1="36" y1="54"  x2="36" y2="86"  stroke="#4a3520" stroke-width="1.2" stroke-dasharray="2,3" opacity="0.7"/>
  <line x1="36" y1="104" x2="36" y2="122" stroke="#4a3520" stroke-width="1.2" stroke-dasharray="2,3" opacity="0.7"/>
  <rect x="28" y="6" width="2" height="128" rx="1" fill="rgba(255,200,120,0.08)"/>

  <!-- Cover -->
  <rect x="46" y="6" width="306" height="128" rx="3" fill="url(#lg-cover)" filter="url(#lg-emboss)"/>

  <!-- Worn corners -->
  <path d="M46,6 L80,6 L46,40 Z" fill="rgba(0,0,0,0.25)" opacity="0.6"/>
  <path d="M352,6 L352,40 L318,6 Z" fill="rgba(0,0,0,0.15)" opacity="0.5"/>
  <path d="M46,134 L46,100 L80,134 Z" fill="rgba(0,0,0,0.3)" opacity="0.7"/>
  <path d="M352,134 L318,134 L352,100 Z" fill="rgba(0,0,0,0.2)" opacity="0.5"/>

  <!-- Wear lines -->
  <line x1="46" y1="44" x2="352" y2="44" stroke="#0a0604" stroke-width="0.6" opacity="0.35"/>
  <line x1="46" y1="96" x2="352" y2="96" stroke="#0a0604" stroke-width="0.5" opacity="0.25"/>

  <!-- Rivets -->
  <circle cx="46" cy="22"  r="3.5" fill="#3a2a18" stroke="#5a4020" stroke-width="0.8"/>
  <circle cx="46" cy="22"  r="1.2" fill="#6a5030" opacity="0.7"/>
  <circle cx="46" cy="70"  r="3.5" fill="#3a2a18" stroke="#5a4020" stroke-width="0.8"/>
  <circle cx="46" cy="70"  r="1.2" fill="#6a5030" opacity="0.7"/>
  <circle cx="46" cy="118" r="3.5" fill="#3a2a18" stroke="#5a4020" stroke-width="0.8"/>
  <circle cx="46" cy="118" r="1.2" fill="#6a5030" opacity="0.7"/>

  <!-- Inner frame groove -->
  <rect x="58" y="14" width="284" height="112" rx="2" fill="none" stroke="rgba(0,0,0,0.55)" stroke-width="1.5"/>
  <rect x="60" y="16" width="280" height="108" rx="1.5" fill="none" stroke="rgba(255,180,80,0.06)" stroke-width="0.8"/>

  <!-- Compass rose emblem -->
  <g transform="translate(76, 36)" opacity="0.55">
    <circle cx="0" cy="0" r="10" fill="none" stroke="rgba(180,140,60,0.5)" stroke-width="0.8"/>
    <line x1="0" y1="-10" x2="0" y2="10" stroke="rgba(180,140,60,0.6)" stroke-width="0.7"/>
    <line x1="-10" y1="0" x2="10" y2="0" stroke="rgba(180,140,60,0.6)" stroke-width="0.7"/>
    <polygon points="0,-8 2,-2 0,0 -2,-2" fill="rgba(200,160,80,0.7)"/>
    <polygon points="0,8 2,2 0,0 -2,2" fill="rgba(160,120,60,0.4)"/>
    <circle cx="0" cy="0" r="2" fill="rgba(200,160,80,0.5)"/>
  </g>

  <!-- Catalog stamp -->
  <g transform="translate(310, 28)" opacity="0.4">
    <rect x="-18" y="-8" width="36" height="16" rx="1" fill="none" stroke="rgba(180,140,60,0.6)" stroke-width="0.7" stroke-dasharray="2,1.5"/>
    <text x="0" y="4" text-anchor="middle" font-family="monospace" font-size="6" letter-spacing="0.05em" fill="rgba(180,140,60,0.8)">CAT.LOG</text>
  </g>

  <!-- Title text — emboss shadow layer -->
  <text x="90" y="75" font-family="monospace" font-size="28" font-weight="400" letter-spacing="0.14em" fill="rgba(200,185,155,0.15)" filter="url(#lg-emboss)">A DRIFTER'S</text>
  <text x="90" y="75" font-family="monospace" font-size="28" font-weight="400" letter-spacing="0.14em" fill="rgba(220,205,175,0.88)" filter="url(#lg-glow)">A DRIFTER'S</text>
  <text x="90" y="108" font-family="monospace" font-size="38" font-weight="400" letter-spacing="0.22em" fill="rgba(200,185,155,0.15)" filter="url(#lg-emboss)">TALE</text>
  <text x="90" y="108" font-family="monospace" font-size="38" font-weight="400" letter-spacing="0.22em" fill="rgba(220,205,175,0.92)" filter="url(#lg-glow)">TALE</text>

  <!-- Rule under title -->
  <line x1="90" y1="116" x2="320" y2="116" stroke="rgba(180,150,80,0.3)" stroke-width="0.7"/>

  <!-- Cover edge bevel -->
  <rect x="46" y="6" width="306" height="128" rx="3" fill="none" stroke="rgba(255,200,100,0.07)" stroke-width="1"/>

  <!-- Dark stain bottom right -->
  <ellipse cx="320" cy="128" rx="40" ry="18" fill="rgba(0,0,0,0.45)" opacity="0.5"/>
</svg>
